<mxfile host="app.diagrams.net" modified="2021-09-17T07:03:57.031Z" agent="5.0 (Macintosh; Intel Mac OS X 10_15_7) AppleWebKit/537.36 (KHTML, like Gecko) Chrome/92.0.4515.159 Safari/537.36" etag="i5Xa5oYw3spshhysSQlW" version="15.2.9" type="github">
  <diagram name="Page-1" id="74e2e168-ea6b-b213-b513-2b3c1d86103e">
    <mxGraphModel dx="2066" dy="1129" grid="1" gridSize="10" guides="1" tooltips="1" connect="1" arrows="1" fold="1" page="1" pageScale="1" pageWidth="1100" pageHeight="850" background="none" math="0" shadow="0">
      <root>
        <mxCell id="0" />
        <mxCell id="1" parent="0" />
        <mxCell id="77e6c97f196da883-1" value="IT账号可视化" style="swimlane;html=1;childLayout=stackLayout;startSize=20;rounded=0;shadow=0;labelBackgroundColor=none;strokeWidth=1;fontFamily=Verdana;fontSize=8;align=center;" parent="1" vertex="1">
          <mxGeometry x="370" y="150" width="1440" height="3420" as="geometry" />
        </mxCell>
        <mxCell id="77e6c97f196da883-26" style="edgeStyle=orthogonalEdgeStyle;rounded=1;html=1;labelBackgroundColor=none;startArrow=none;startFill=0;startSize=5;endArrow=classicThin;endFill=1;endSize=5;jettySize=auto;orthogonalLoop=1;strokeWidth=1;fontFamily=Verdana;fontSize=8" parent="77e6c97f196da883-1" source="77e6c97f196da883-8" target="77e6c97f196da883-11" edge="1">
          <mxGeometry relative="1" as="geometry" />
        </mxCell>
        <mxCell id="77e6c97f196da883-2" value="前端" style="swimlane;html=1;startSize=20;" parent="77e6c97f196da883-1" vertex="1">
          <mxGeometry y="20" width="160" height="3400" as="geometry" />
        </mxCell>
        <mxCell id="77e6c97f196da883-8" value="获取基本信息" style="rounded=1;whiteSpace=wrap;html=1;shadow=0;labelBackgroundColor=none;strokeWidth=1;fontFamily=Verdana;fontSize=8;align=center;" parent="77e6c97f196da883-2" vertex="1">
          <mxGeometry x="20" y="65" width="100" height="60" as="geometry" />
        </mxCell>
        <mxCell id="hE7h3HSLKEIrsSuIDKho-19" value="域账号卡片信息" style="rounded=1;whiteSpace=wrap;html=1;shadow=0;labelBackgroundColor=none;strokeWidth=1;fontFamily=Verdana;fontSize=8;align=center;" vertex="1" parent="77e6c97f196da883-2">
          <mxGeometry x="30" y="290" width="100" height="60" as="geometry" />
        </mxCell>
        <mxCell id="hE7h3HSLKEIrsSuIDKho-20" value="深信服VPN卡片信息" style="rounded=1;whiteSpace=wrap;html=1;shadow=0;labelBackgroundColor=none;strokeWidth=1;fontFamily=Verdana;fontSize=8;align=center;" vertex="1" parent="77e6c97f196da883-2">
          <mxGeometry x="30" y="1910" width="100" height="60" as="geometry" />
        </mxCell>
        <mxCell id="hE7h3HSLKEIrsSuIDKho-21" value="飞塔VPN卡片信息" style="rounded=1;whiteSpace=wrap;html=1;shadow=0;labelBackgroundColor=none;strokeWidth=1;fontFamily=Verdana;fontSize=8;align=center;" vertex="1" parent="77e6c97f196da883-2">
          <mxGeometry x="30" y="1220" width="100" height="60" as="geometry" />
        </mxCell>
        <mxCell id="hE7h3HSLKEIrsSuIDKho-22" value="邮箱卡片信息" style="rounded=1;whiteSpace=wrap;html=1;shadow=0;labelBackgroundColor=none;strokeWidth=1;fontFamily=Verdana;fontSize=8;align=center;" vertex="1" parent="77e6c97f196da883-2">
          <mxGeometry x="30" y="740" width="100" height="60" as="geometry" />
        </mxCell>
        <mxCell id="hE7h3HSLKEIrsSuIDKho-23" value="WebEx账号卡片信息" style="rounded=1;whiteSpace=wrap;html=1;shadow=0;labelBackgroundColor=none;strokeWidth=1;fontFamily=Verdana;fontSize=8;align=center;" vertex="1" parent="77e6c97f196da883-2">
          <mxGeometry x="30" y="2370" width="100" height="60" as="geometry" />
        </mxCell>
        <mxCell id="hE7h3HSLKEIrsSuIDKho-30" value="域账号修改/重置" style="rounded=1;whiteSpace=wrap;html=1;shadow=0;labelBackgroundColor=none;strokeWidth=1;fontFamily=Verdana;fontSize=8;align=center;" vertex="1" parent="77e6c97f196da883-2">
          <mxGeometry x="30" y="520" width="100" height="60" as="geometry" />
        </mxCell>
        <mxCell id="hE7h3HSLKEIrsSuIDKho-118" value="邮箱修改/重置密码" style="rounded=1;whiteSpace=wrap;html=1;shadow=0;labelBackgroundColor=none;strokeWidth=1;fontFamily=Verdana;fontSize=8;align=center;" vertex="1" parent="77e6c97f196da883-2">
          <mxGeometry x="40" y="970" width="100" height="60" as="geometry" />
        </mxCell>
        <mxCell id="hE7h3HSLKEIrsSuIDKho-138" value="飞塔VPN申请" style="rounded=1;whiteSpace=wrap;html=1;shadow=0;labelBackgroundColor=none;strokeWidth=1;fontFamily=Verdana;fontSize=8;align=center;" vertex="1" parent="77e6c97f196da883-2">
          <mxGeometry x="30" y="1460" width="100" height="60" as="geometry" />
        </mxCell>
        <mxCell id="hE7h3HSLKEIrsSuIDKho-141" value="飞塔VPN申请流程状态" style="rounded=1;whiteSpace=wrap;html=1;shadow=0;labelBackgroundColor=none;strokeWidth=1;fontFamily=Verdana;fontSize=8;align=center;" vertex="1" parent="77e6c97f196da883-2">
          <mxGeometry x="30" y="1660" width="100" height="60" as="geometry" />
        </mxCell>
        <mxCell id="hE7h3HSLKEIrsSuIDKho-149" value="飞塔VPN申请成功或者失败" style="rounded=1;whiteSpace=wrap;html=1;shadow=0;labelBackgroundColor=none;strokeWidth=1;fontFamily=Verdana;fontSize=8;align=center;" vertex="1" parent="77e6c97f196da883-2">
          <mxGeometry x="30" y="1540" width="100" height="60" as="geometry" />
        </mxCell>
        <mxCell id="hE7h3HSLKEIrsSuIDKho-156" value="深信服VPN修改双因素" style="rounded=1;whiteSpace=wrap;html=1;shadow=0;labelBackgroundColor=none;strokeWidth=1;fontFamily=Verdana;fontSize=8;align=center;" vertex="1" parent="77e6c97f196da883-2">
          <mxGeometry x="30" y="2140" width="100" height="60" as="geometry" />
        </mxCell>
        <mxCell id="hE7h3HSLKEIrsSuIDKho-182" value="客服中心信息展示" style="rounded=1;whiteSpace=wrap;html=1;shadow=0;labelBackgroundColor=none;strokeWidth=1;fontFamily=Verdana;fontSize=8;align=center;" vertex="1" parent="77e6c97f196da883-2">
          <mxGeometry x="30" y="3240" width="100" height="60" as="geometry" />
        </mxCell>
        <mxCell id="hE7h3HSLKEIrsSuIDKho-188" value="WebEx账号申请" style="rounded=1;whiteSpace=wrap;html=1;shadow=0;labelBackgroundColor=none;strokeWidth=1;fontFamily=Verdana;fontSize=8;align=center;" vertex="1" parent="77e6c97f196da883-2">
          <mxGeometry x="30" y="2830" width="100" height="60" as="geometry" />
        </mxCell>
        <mxCell id="hE7h3HSLKEIrsSuIDKho-191" value="WebEx账号申请成功或者失败" style="rounded=1;whiteSpace=wrap;html=1;shadow=0;labelBackgroundColor=none;strokeWidth=1;fontFamily=Verdana;fontSize=8;align=center;" vertex="1" parent="77e6c97f196da883-2">
          <mxGeometry x="30" y="2920" width="100" height="60" as="geometry" />
        </mxCell>
        <mxCell id="hE7h3HSLKEIrsSuIDKho-193" value="WebEx账号申请流程状态" style="rounded=1;whiteSpace=wrap;html=1;shadow=0;labelBackgroundColor=none;strokeWidth=1;fontFamily=Verdana;fontSize=8;align=center;" vertex="1" parent="77e6c97f196da883-2">
          <mxGeometry x="30" y="3040" width="100" height="60" as="geometry" />
        </mxCell>
        <mxCell id="hE7h3HSLKEIrsSuIDKho-205" value="WebEx账号重置/修改密码" style="rounded=1;whiteSpace=wrap;html=1;shadow=0;labelBackgroundColor=none;strokeWidth=1;fontFamily=Verdana;fontSize=8;align=center;" vertex="1" parent="77e6c97f196da883-2">
          <mxGeometry x="30" y="2630" width="100" height="60" as="geometry" />
        </mxCell>
        <mxCell id="hE7h3HSLKEIrsSuIDKho-211" value="" style="edgeStyle=orthogonalEdgeStyle;rounded=0;orthogonalLoop=1;jettySize=auto;html=1;" edge="1" parent="77e6c97f196da883-2" source="hE7h3HSLKEIrsSuIDKho-208" target="hE7h3HSLKEIrsSuIDKho-205">
          <mxGeometry relative="1" as="geometry" />
        </mxCell>
        <mxCell id="hE7h3HSLKEIrsSuIDKho-208" value="WebEx账号重置/修改密码成功或者失败" style="rounded=1;whiteSpace=wrap;html=1;shadow=0;labelBackgroundColor=none;strokeWidth=1;fontFamily=Verdana;fontSize=8;align=center;" vertex="1" parent="77e6c97f196da883-2">
          <mxGeometry x="30" y="2730" width="100" height="60" as="geometry" />
        </mxCell>
        <mxCell id="77e6c97f196da883-3" value="&lt;span style=&quot;font-family: &amp;#34;verdana&amp;#34; ; font-size: 8px ; font-weight: 400&quot;&gt;portal&lt;/span&gt;" style="swimlane;html=1;startSize=20;" parent="77e6c97f196da883-1" vertex="1">
          <mxGeometry x="160" y="20" width="160" height="3400" as="geometry" />
        </mxCell>
        <mxCell id="77e6c97f196da883-11" value="&lt;span&gt;查询基本信息&lt;/span&gt;" style="rounded=1;whiteSpace=wrap;html=1;shadow=0;labelBackgroundColor=none;strokeWidth=1;fontFamily=Verdana;fontSize=8;align=center;" parent="77e6c97f196da883-3" vertex="1">
          <mxGeometry x="30" y="65" width="100" height="60" as="geometry" />
        </mxCell>
        <mxCell id="77e6c97f196da883-9" value="返回基本信息" style="rounded=1;whiteSpace=wrap;html=1;shadow=0;labelBackgroundColor=none;strokeWidth=1;fontFamily=Verdana;fontSize=8;align=center;" parent="77e6c97f196da883-3" vertex="1">
          <mxGeometry x="30" y="160" width="100" height="60" as="geometry" />
        </mxCell>
        <mxCell id="hE7h3HSLKEIrsSuIDKho-24" value="&lt;span&gt;查询域账号信息&lt;/span&gt;" style="rounded=1;whiteSpace=wrap;html=1;shadow=0;labelBackgroundColor=none;strokeWidth=1;fontFamily=Verdana;fontSize=8;align=center;" vertex="1" parent="77e6c97f196da883-3">
          <mxGeometry x="30" y="290" width="100" height="60" as="geometry" />
        </mxCell>
        <mxCell id="hE7h3HSLKEIrsSuIDKho-26" value="&lt;span&gt;返回域账号信息&lt;/span&gt;" style="rounded=1;whiteSpace=wrap;html=1;shadow=0;labelBackgroundColor=none;strokeWidth=1;fontFamily=Verdana;fontSize=8;align=center;" vertex="1" parent="77e6c97f196da883-3">
          <mxGeometry x="30" y="380" width="100" height="60" as="geometry" />
        </mxCell>
        <mxCell id="hE7h3HSLKEIrsSuIDKho-31" value="域账号修改/重置" style="rounded=1;whiteSpace=wrap;html=1;shadow=0;labelBackgroundColor=none;strokeWidth=1;fontFamily=Verdana;fontSize=8;align=center;" vertex="1" parent="77e6c97f196da883-3">
          <mxGeometry x="30" y="520" width="100" height="60" as="geometry" />
        </mxCell>
        <mxCell id="hE7h3HSLKEIrsSuIDKho-35" value="&lt;span&gt;返回成功失败信息&lt;/span&gt;" style="rounded=1;whiteSpace=wrap;html=1;shadow=0;labelBackgroundColor=none;strokeWidth=1;fontFamily=Verdana;fontSize=8;align=center;" vertex="1" parent="77e6c97f196da883-3">
          <mxGeometry x="30" y="620" width="100" height="60" as="geometry" />
        </mxCell>
        <mxCell id="hE7h3HSLKEIrsSuIDKho-37" value="查询邮箱卡片信息" style="rounded=1;whiteSpace=wrap;html=1;shadow=0;labelBackgroundColor=none;strokeWidth=1;fontFamily=Verdana;fontSize=8;align=center;" vertex="1" parent="77e6c97f196da883-3">
          <mxGeometry x="30" y="740" width="100" height="60" as="geometry" />
        </mxCell>
        <mxCell id="hE7h3HSLKEIrsSuIDKho-41" value="返回邮箱卡片信息" style="rounded=1;whiteSpace=wrap;html=1;shadow=0;labelBackgroundColor=none;strokeWidth=1;fontFamily=Verdana;fontSize=8;align=center;" vertex="1" parent="77e6c97f196da883-3">
          <mxGeometry x="30" y="840" width="100" height="60" as="geometry" />
        </mxCell>
        <mxCell id="hE7h3HSLKEIrsSuIDKho-115" value="查询飞塔VPN卡片信息" style="rounded=1;whiteSpace=wrap;html=1;shadow=0;labelBackgroundColor=none;strokeWidth=1;fontFamily=Verdana;fontSize=8;align=center;" vertex="1" parent="77e6c97f196da883-3">
          <mxGeometry x="30" y="1220" width="100" height="60" as="geometry" />
        </mxCell>
        <mxCell id="hE7h3HSLKEIrsSuIDKho-117" value="返回飞塔VPN卡片信息" style="rounded=1;whiteSpace=wrap;html=1;shadow=0;labelBackgroundColor=none;strokeWidth=1;fontFamily=Verdana;fontSize=8;align=center;" vertex="1" parent="77e6c97f196da883-3">
          <mxGeometry x="30" y="1330" width="100" height="60" as="geometry" />
        </mxCell>
        <mxCell id="hE7h3HSLKEIrsSuIDKho-119" value="邮箱修改/重置密码" style="rounded=1;whiteSpace=wrap;html=1;shadow=0;labelBackgroundColor=none;strokeWidth=1;fontFamily=Verdana;fontSize=8;align=center;" vertex="1" parent="77e6c97f196da883-3">
          <mxGeometry x="30" y="970" width="100" height="60" as="geometry" />
        </mxCell>
        <mxCell id="hE7h3HSLKEIrsSuIDKho-125" value="&lt;span&gt;返回成功失败信息&lt;/span&gt;" style="rounded=1;whiteSpace=wrap;html=1;shadow=0;labelBackgroundColor=none;strokeWidth=1;fontFamily=Verdana;fontSize=8;align=center;" vertex="1" parent="77e6c97f196da883-3">
          <mxGeometry x="30" y="1080" width="100" height="60" as="geometry" />
        </mxCell>
        <mxCell id="hE7h3HSLKEIrsSuIDKho-143" value="获取飞塔VPN申请流程状态" style="rounded=1;whiteSpace=wrap;html=1;shadow=0;labelBackgroundColor=none;strokeWidth=1;fontFamily=Verdana;fontSize=8;align=center;" vertex="1" parent="77e6c97f196da883-3">
          <mxGeometry x="30" y="1660" width="100" height="60" as="geometry" />
        </mxCell>
        <mxCell id="hE7h3HSLKEIrsSuIDKho-146" value="返回飞塔VPN申请流程状态" style="rounded=1;whiteSpace=wrap;html=1;shadow=0;labelBackgroundColor=none;strokeWidth=1;fontFamily=Verdana;fontSize=8;align=center;" vertex="1" parent="77e6c97f196da883-3">
          <mxGeometry x="30" y="1750" width="100" height="60" as="geometry" />
        </mxCell>
        <mxCell id="hE7h3HSLKEIrsSuIDKho-151" value="深信服VPN卡片信息" style="rounded=1;whiteSpace=wrap;html=1;shadow=0;labelBackgroundColor=none;strokeWidth=1;fontFamily=Verdana;fontSize=8;align=center;" vertex="1" parent="77e6c97f196da883-3">
          <mxGeometry x="30" y="1910" width="100" height="60" as="geometry" />
        </mxCell>
        <mxCell id="hE7h3HSLKEIrsSuIDKho-153" value="返回深信服VPN卡片信息" style="rounded=1;whiteSpace=wrap;html=1;shadow=0;labelBackgroundColor=none;strokeWidth=1;fontFamily=Verdana;fontSize=8;align=center;" vertex="1" parent="77e6c97f196da883-3">
          <mxGeometry x="30" y="2010" width="100" height="60" as="geometry" />
        </mxCell>
        <mxCell id="hE7h3HSLKEIrsSuIDKho-160" style="edgeStyle=orthogonalEdgeStyle;rounded=0;orthogonalLoop=1;jettySize=auto;html=1;entryX=0.5;entryY=0;entryDx=0;entryDy=0;" edge="1" parent="77e6c97f196da883-3" source="hE7h3HSLKEIrsSuIDKho-157" target="hE7h3HSLKEIrsSuIDKho-159">
          <mxGeometry relative="1" as="geometry" />
        </mxCell>
        <mxCell id="hE7h3HSLKEIrsSuIDKho-157" value="深信服VPN修改双因素" style="rounded=1;whiteSpace=wrap;html=1;shadow=0;labelBackgroundColor=none;strokeWidth=1;fontFamily=Verdana;fontSize=8;align=center;" vertex="1" parent="77e6c97f196da883-3">
          <mxGeometry x="20" y="2140" width="100" height="60" as="geometry" />
        </mxCell>
        <mxCell id="hE7h3HSLKEIrsSuIDKho-159" value="返回深信服VPN修改双因素成功或者失败" style="rounded=1;whiteSpace=wrap;html=1;shadow=0;labelBackgroundColor=none;strokeWidth=1;fontFamily=Verdana;fontSize=8;align=center;" vertex="1" parent="77e6c97f196da883-3">
          <mxGeometry x="20" y="2240" width="100" height="60" as="geometry" />
        </mxCell>
        <mxCell id="hE7h3HSLKEIrsSuIDKho-178" value="查询WebEx账号卡片信息" style="rounded=1;whiteSpace=wrap;html=1;shadow=0;labelBackgroundColor=none;strokeWidth=1;fontFamily=Verdana;fontSize=8;align=center;" vertex="1" parent="77e6c97f196da883-3">
          <mxGeometry x="20" y="2370" width="100" height="60" as="geometry" />
        </mxCell>
        <mxCell id="hE7h3HSLKEIrsSuIDKho-184" value="查询WebEx账号卡片信息" style="rounded=1;whiteSpace=wrap;html=1;shadow=0;labelBackgroundColor=none;strokeWidth=1;fontFamily=Verdana;fontSize=8;align=center;" vertex="1" parent="77e6c97f196da883-3">
          <mxGeometry x="20" y="2490" width="100" height="60" as="geometry" />
        </mxCell>
        <mxCell id="hE7h3HSLKEIrsSuIDKho-194" value="WebEx账号申请流程状态" style="rounded=1;whiteSpace=wrap;html=1;shadow=0;labelBackgroundColor=none;strokeWidth=1;fontFamily=Verdana;fontSize=8;align=center;" vertex="1" parent="77e6c97f196da883-3">
          <mxGeometry x="30" y="3040" width="100" height="60" as="geometry" />
        </mxCell>
        <mxCell id="hE7h3HSLKEIrsSuIDKho-198" value="WebEx账号申请流程状态" style="rounded=1;whiteSpace=wrap;html=1;shadow=0;labelBackgroundColor=none;strokeWidth=1;fontFamily=Verdana;fontSize=8;align=center;" vertex="1" parent="77e6c97f196da883-3">
          <mxGeometry x="30" y="3130" width="100" height="60" as="geometry" />
        </mxCell>
        <mxCell id="hE7h3HSLKEIrsSuIDKho-144" style="edgeStyle=orthogonalEdgeStyle;rounded=0;orthogonalLoop=1;jettySize=auto;html=1;entryX=0;entryY=0.5;entryDx=0;entryDy=0;" edge="1" parent="77e6c97f196da883-1" source="hE7h3HSLKEIrsSuIDKho-141" target="hE7h3HSLKEIrsSuIDKho-143">
          <mxGeometry relative="1" as="geometry" />
        </mxCell>
        <mxCell id="hE7h3HSLKEIrsSuIDKho-145" style="edgeStyle=orthogonalEdgeStyle;rounded=0;orthogonalLoop=1;jettySize=auto;html=1;entryX=0;entryY=0.5;entryDx=0;entryDy=0;entryPerimeter=0;" edge="1" parent="77e6c97f196da883-1" source="hE7h3HSLKEIrsSuIDKho-143" target="hE7h3HSLKEIrsSuIDKho-142">
          <mxGeometry relative="1" as="geometry">
            <mxPoint x="820" y="1740" as="targetPoint" />
          </mxGeometry>
        </mxCell>
        <mxCell id="hE7h3HSLKEIrsSuIDKho-147" style="edgeStyle=orthogonalEdgeStyle;rounded=0;orthogonalLoop=1;jettySize=auto;html=1;entryX=1;entryY=0.5;entryDx=0;entryDy=0;" edge="1" parent="77e6c97f196da883-1" source="hE7h3HSLKEIrsSuIDKho-142" target="hE7h3HSLKEIrsSuIDKho-146">
          <mxGeometry relative="1" as="geometry">
            <Array as="points">
              <mxPoint x="1200" y="1800" />
            </Array>
          </mxGeometry>
        </mxCell>
        <mxCell id="hE7h3HSLKEIrsSuIDKho-148" style="edgeStyle=orthogonalEdgeStyle;rounded=0;orthogonalLoop=1;jettySize=auto;html=1;" edge="1" parent="77e6c97f196da883-1" source="hE7h3HSLKEIrsSuIDKho-146" target="hE7h3HSLKEIrsSuIDKho-141">
          <mxGeometry relative="1" as="geometry" />
        </mxCell>
        <mxCell id="hE7h3HSLKEIrsSuIDKho-190" style="edgeStyle=orthogonalEdgeStyle;rounded=0;orthogonalLoop=1;jettySize=auto;html=1;entryX=0;entryY=0.5;entryDx=0;entryDy=0;" edge="1" parent="77e6c97f196da883-1" source="hE7h3HSLKEIrsSuIDKho-188" target="hE7h3HSLKEIrsSuIDKho-189">
          <mxGeometry relative="1" as="geometry" />
        </mxCell>
        <mxCell id="hE7h3HSLKEIrsSuIDKho-192" style="edgeStyle=orthogonalEdgeStyle;rounded=0;orthogonalLoop=1;jettySize=auto;html=1;entryX=1;entryY=0.5;entryDx=0;entryDy=0;" edge="1" parent="77e6c97f196da883-1" source="hE7h3HSLKEIrsSuIDKho-189" target="hE7h3HSLKEIrsSuIDKho-191">
          <mxGeometry relative="1" as="geometry">
            <Array as="points">
              <mxPoint x="1200" y="2970" />
            </Array>
          </mxGeometry>
        </mxCell>
        <mxCell id="hE7h3HSLKEIrsSuIDKho-196" style="edgeStyle=orthogonalEdgeStyle;rounded=0;orthogonalLoop=1;jettySize=auto;html=1;entryX=0;entryY=0.5;entryDx=0;entryDy=0;" edge="1" parent="77e6c97f196da883-1" source="hE7h3HSLKEIrsSuIDKho-193" target="hE7h3HSLKEIrsSuIDKho-194">
          <mxGeometry relative="1" as="geometry" />
        </mxCell>
        <mxCell id="hE7h3HSLKEIrsSuIDKho-197" style="edgeStyle=orthogonalEdgeStyle;rounded=0;orthogonalLoop=1;jettySize=auto;html=1;entryX=0;entryY=0.5;entryDx=0;entryDy=0;" edge="1" parent="77e6c97f196da883-1" source="hE7h3HSLKEIrsSuIDKho-194" target="hE7h3HSLKEIrsSuIDKho-195">
          <mxGeometry relative="1" as="geometry">
            <mxPoint x="1100" y="3070" as="targetPoint" />
          </mxGeometry>
        </mxCell>
        <mxCell id="hE7h3HSLKEIrsSuIDKho-199" style="edgeStyle=orthogonalEdgeStyle;rounded=0;orthogonalLoop=1;jettySize=auto;html=1;entryX=1;entryY=0.5;entryDx=0;entryDy=0;" edge="1" parent="77e6c97f196da883-1" source="hE7h3HSLKEIrsSuIDKho-195" target="hE7h3HSLKEIrsSuIDKho-198">
          <mxGeometry relative="1" as="geometry">
            <Array as="points">
              <mxPoint x="1190" y="3180" />
            </Array>
          </mxGeometry>
        </mxCell>
        <mxCell id="hE7h3HSLKEIrsSuIDKho-200" style="edgeStyle=orthogonalEdgeStyle;rounded=0;orthogonalLoop=1;jettySize=auto;html=1;entryX=0.5;entryY=1;entryDx=0;entryDy=0;" edge="1" parent="77e6c97f196da883-1" source="hE7h3HSLKEIrsSuIDKho-198" target="hE7h3HSLKEIrsSuIDKho-193">
          <mxGeometry relative="1" as="geometry" />
        </mxCell>
        <mxCell id="77e6c97f196da883-5" value="邮箱" style="swimlane;html=1;startSize=20;" parent="77e6c97f196da883-1" vertex="1">
          <mxGeometry x="320" y="20" width="160" height="3400" as="geometry" />
        </mxCell>
        <mxCell id="hE7h3HSLKEIrsSuIDKho-38" value="查询邮箱卡片信息" style="rounded=1;whiteSpace=wrap;html=1;shadow=0;labelBackgroundColor=none;strokeWidth=1;fontFamily=Verdana;fontSize=8;align=center;" vertex="1" parent="77e6c97f196da883-5">
          <mxGeometry x="30" y="740" width="100" height="60" as="geometry" />
        </mxCell>
        <mxCell id="hE7h3HSLKEIrsSuIDKho-120" value="邮箱修改/重置密码" style="rounded=1;whiteSpace=wrap;html=1;shadow=0;labelBackgroundColor=none;strokeWidth=1;fontFamily=Verdana;fontSize=8;align=center;" vertex="1" parent="77e6c97f196da883-5">
          <mxGeometry x="30" y="970" width="100" height="60" as="geometry" />
        </mxCell>
        <mxCell id="77e6c97f196da883-7" value="飞塔VPN" style="swimlane;html=1;startSize=20;" parent="77e6c97f196da883-1" vertex="1">
          <mxGeometry x="480" y="20" width="160" height="3400" as="geometry" />
        </mxCell>
        <mxCell id="hE7h3HSLKEIrsSuIDKho-116" value="查询飞塔VPN卡片信息" style="rounded=1;whiteSpace=wrap;html=1;shadow=0;labelBackgroundColor=none;strokeWidth=1;fontFamily=Verdana;fontSize=8;align=center;" vertex="1" parent="77e6c97f196da883-7">
          <mxGeometry x="30" y="1220" width="100" height="60" as="geometry" />
        </mxCell>
        <mxCell id="hE7h3HSLKEIrsSuIDKho-1" value="深信服VPN" style="swimlane;html=1;startSize=20;" vertex="1" parent="77e6c97f196da883-1">
          <mxGeometry x="640" y="20" width="160" height="3400" as="geometry" />
        </mxCell>
        <mxCell id="hE7h3HSLKEIrsSuIDKho-162" value="深信服VPN卡片信息" style="rounded=1;whiteSpace=wrap;html=1;shadow=0;labelBackgroundColor=none;strokeWidth=1;fontFamily=Verdana;fontSize=8;align=center;" vertex="1" parent="hE7h3HSLKEIrsSuIDKho-1">
          <mxGeometry x="30" y="1910" width="100" height="60" as="geometry" />
        </mxCell>
        <mxCell id="hE7h3HSLKEIrsSuIDKho-16" style="edgeStyle=orthogonalEdgeStyle;rounded=0;orthogonalLoop=1;jettySize=auto;html=1;entryX=1;entryY=0.5;entryDx=0;entryDy=0;" edge="1" parent="77e6c97f196da883-1" source="hE7h3HSLKEIrsSuIDKho-11" target="77e6c97f196da883-9">
          <mxGeometry relative="1" as="geometry">
            <mxPoint x="320" y="210" as="targetPoint" />
            <Array as="points">
              <mxPoint x="1360" y="210" />
            </Array>
          </mxGeometry>
        </mxCell>
        <mxCell id="hE7h3HSLKEIrsSuIDKho-18" style="edgeStyle=orthogonalEdgeStyle;rounded=0;orthogonalLoop=1;jettySize=auto;html=1;entryX=0.5;entryY=1;entryDx=0;entryDy=0;" edge="1" parent="77e6c97f196da883-1" source="77e6c97f196da883-9" target="77e6c97f196da883-8">
          <mxGeometry relative="1" as="geometry" />
        </mxCell>
        <mxCell id="hE7h3HSLKEIrsSuIDKho-27" style="edgeStyle=orthogonalEdgeStyle;rounded=0;orthogonalLoop=1;jettySize=auto;html=1;entryX=0.44;entryY=1.033;entryDx=0;entryDy=0;entryPerimeter=0;" edge="1" parent="77e6c97f196da883-1" source="hE7h3HSLKEIrsSuIDKho-26" target="hE7h3HSLKEIrsSuIDKho-19">
          <mxGeometry relative="1" as="geometry" />
        </mxCell>
        <mxCell id="hE7h3HSLKEIrsSuIDKho-28" style="edgeStyle=orthogonalEdgeStyle;rounded=0;orthogonalLoop=1;jettySize=auto;html=1;entryX=0;entryY=0.5;entryDx=0;entryDy=0;" edge="1" parent="77e6c97f196da883-1" source="hE7h3HSLKEIrsSuIDKho-19" target="hE7h3HSLKEIrsSuIDKho-24">
          <mxGeometry relative="1" as="geometry" />
        </mxCell>
        <mxCell id="hE7h3HSLKEIrsSuIDKho-29" style="edgeStyle=orthogonalEdgeStyle;rounded=0;orthogonalLoop=1;jettySize=auto;html=1;" edge="1" parent="77e6c97f196da883-1" source="hE7h3HSLKEIrsSuIDKho-24" target="hE7h3HSLKEIrsSuIDKho-25">
          <mxGeometry relative="1" as="geometry" />
        </mxCell>
        <mxCell id="hE7h3HSLKEIrsSuIDKho-32" style="edgeStyle=orthogonalEdgeStyle;rounded=0;orthogonalLoop=1;jettySize=auto;html=1;entryX=0;entryY=0.5;entryDx=0;entryDy=0;" edge="1" parent="77e6c97f196da883-1" source="hE7h3HSLKEIrsSuIDKho-30" target="hE7h3HSLKEIrsSuIDKho-31">
          <mxGeometry relative="1" as="geometry" />
        </mxCell>
        <mxCell id="hE7h3HSLKEIrsSuIDKho-203" value="验证" style="edgeLabel;html=1;align=center;verticalAlign=middle;resizable=0;points=[];" vertex="1" connectable="0" parent="hE7h3HSLKEIrsSuIDKho-32">
          <mxGeometry x="-0.0667" y="1" relative="1" as="geometry">
            <mxPoint as="offset" />
          </mxGeometry>
        </mxCell>
        <mxCell id="hE7h3HSLKEIrsSuIDKho-34" style="edgeStyle=orthogonalEdgeStyle;rounded=0;orthogonalLoop=1;jettySize=auto;html=1;entryX=0;entryY=0.5;entryDx=0;entryDy=0;" edge="1" parent="77e6c97f196da883-1" source="hE7h3HSLKEIrsSuIDKho-31" target="hE7h3HSLKEIrsSuIDKho-33">
          <mxGeometry relative="1" as="geometry" />
        </mxCell>
        <mxCell id="hE7h3HSLKEIrsSuIDKho-36" style="edgeStyle=orthogonalEdgeStyle;rounded=0;orthogonalLoop=1;jettySize=auto;html=1;entryX=1;entryY=0.5;entryDx=0;entryDy=0;" edge="1" parent="77e6c97f196da883-1" source="hE7h3HSLKEIrsSuIDKho-33" target="hE7h3HSLKEIrsSuIDKho-35">
          <mxGeometry relative="1" as="geometry">
            <Array as="points">
              <mxPoint x="1040" y="670" />
            </Array>
          </mxGeometry>
        </mxCell>
        <mxCell id="hE7h3HSLKEIrsSuIDKho-39" style="edgeStyle=orthogonalEdgeStyle;rounded=0;orthogonalLoop=1;jettySize=auto;html=1;entryX=0;entryY=0.5;entryDx=0;entryDy=0;" edge="1" parent="77e6c97f196da883-1" source="hE7h3HSLKEIrsSuIDKho-22" target="hE7h3HSLKEIrsSuIDKho-37">
          <mxGeometry relative="1" as="geometry" />
        </mxCell>
        <mxCell id="hE7h3HSLKEIrsSuIDKho-40" style="edgeStyle=orthogonalEdgeStyle;rounded=0;orthogonalLoop=1;jettySize=auto;html=1;" edge="1" parent="77e6c97f196da883-1" source="hE7h3HSLKEIrsSuIDKho-37" target="hE7h3HSLKEIrsSuIDKho-38">
          <mxGeometry relative="1" as="geometry" />
        </mxCell>
        <mxCell id="hE7h3HSLKEIrsSuIDKho-43" style="edgeStyle=orthogonalEdgeStyle;rounded=0;orthogonalLoop=1;jettySize=auto;html=1;entryX=1;entryY=0.5;entryDx=0;entryDy=0;" edge="1" parent="77e6c97f196da883-1" source="hE7h3HSLKEIrsSuIDKho-38" target="hE7h3HSLKEIrsSuIDKho-41">
          <mxGeometry relative="1" as="geometry">
            <Array as="points">
              <mxPoint x="400" y="890" />
            </Array>
          </mxGeometry>
        </mxCell>
        <mxCell id="hE7h3HSLKEIrsSuIDKho-44" style="edgeStyle=orthogonalEdgeStyle;rounded=0;orthogonalLoop=1;jettySize=auto;html=1;entryX=0.5;entryY=1;entryDx=0;entryDy=0;" edge="1" parent="77e6c97f196da883-1" source="hE7h3HSLKEIrsSuIDKho-35" target="hE7h3HSLKEIrsSuIDKho-30">
          <mxGeometry relative="1" as="geometry" />
        </mxCell>
        <mxCell id="hE7h3HSLKEIrsSuIDKho-45" style="edgeStyle=orthogonalEdgeStyle;rounded=0;orthogonalLoop=1;jettySize=auto;html=1;entryX=0.5;entryY=1;entryDx=0;entryDy=0;" edge="1" parent="77e6c97f196da883-1" source="hE7h3HSLKEIrsSuIDKho-41" target="hE7h3HSLKEIrsSuIDKho-22">
          <mxGeometry relative="1" as="geometry" />
        </mxCell>
        <mxCell id="hE7h3HSLKEIrsSuIDKho-121" style="edgeStyle=orthogonalEdgeStyle;rounded=0;orthogonalLoop=1;jettySize=auto;html=1;entryX=0;entryY=0.5;entryDx=0;entryDy=0;" edge="1" parent="77e6c97f196da883-1" source="hE7h3HSLKEIrsSuIDKho-118" target="hE7h3HSLKEIrsSuIDKho-119">
          <mxGeometry relative="1" as="geometry" />
        </mxCell>
        <mxCell id="hE7h3HSLKEIrsSuIDKho-204" value="验证" style="edgeLabel;html=1;align=center;verticalAlign=middle;resizable=0;points=[];" vertex="1" connectable="0" parent="hE7h3HSLKEIrsSuIDKho-121">
          <mxGeometry x="-0.2" y="2" relative="1" as="geometry">
            <mxPoint as="offset" />
          </mxGeometry>
        </mxCell>
        <mxCell id="hE7h3HSLKEIrsSuIDKho-122" style="edgeStyle=orthogonalEdgeStyle;rounded=0;orthogonalLoop=1;jettySize=auto;html=1;entryX=0;entryY=0.5;entryDx=0;entryDy=0;" edge="1" parent="77e6c97f196da883-1" source="hE7h3HSLKEIrsSuIDKho-119" target="hE7h3HSLKEIrsSuIDKho-120">
          <mxGeometry relative="1" as="geometry" />
        </mxCell>
        <mxCell id="hE7h3HSLKEIrsSuIDKho-126" style="edgeStyle=orthogonalEdgeStyle;rounded=0;orthogonalLoop=1;jettySize=auto;html=1;entryX=1;entryY=0.5;entryDx=0;entryDy=0;" edge="1" parent="77e6c97f196da883-1" source="hE7h3HSLKEIrsSuIDKho-120" target="hE7h3HSLKEIrsSuIDKho-125">
          <mxGeometry relative="1" as="geometry">
            <Array as="points">
              <mxPoint x="400" y="1130" />
            </Array>
          </mxGeometry>
        </mxCell>
        <mxCell id="hE7h3HSLKEIrsSuIDKho-127" style="edgeStyle=orthogonalEdgeStyle;rounded=0;orthogonalLoop=1;jettySize=auto;html=1;entryX=0.5;entryY=1;entryDx=0;entryDy=0;" edge="1" parent="77e6c97f196da883-1" source="hE7h3HSLKEIrsSuIDKho-125" target="hE7h3HSLKEIrsSuIDKho-118">
          <mxGeometry relative="1" as="geometry" />
        </mxCell>
        <mxCell id="hE7h3HSLKEIrsSuIDKho-4" value="WebEx账号" style="swimlane;html=1;startSize=20;" vertex="1" parent="77e6c97f196da883-1">
          <mxGeometry x="800" y="20" width="160" height="3400" as="geometry" />
        </mxCell>
        <mxCell id="hE7h3HSLKEIrsSuIDKho-179" value="WebEx账号卡片信息" style="rounded=1;whiteSpace=wrap;html=1;shadow=0;labelBackgroundColor=none;strokeWidth=1;fontFamily=Verdana;fontSize=8;align=center;" vertex="1" parent="hE7h3HSLKEIrsSuIDKho-4">
          <mxGeometry x="40" y="2370" width="100" height="60" as="geometry" />
        </mxCell>
        <mxCell id="hE7h3HSLKEIrsSuIDKho-206" value="WebEx账号重置/修改密码" style="rounded=1;whiteSpace=wrap;html=1;shadow=0;labelBackgroundColor=none;strokeWidth=1;fontFamily=Verdana;fontSize=8;align=center;" vertex="1" parent="hE7h3HSLKEIrsSuIDKho-4">
          <mxGeometry x="30" y="2630" width="100" height="60" as="geometry" />
        </mxCell>
        <mxCell id="hE7h3HSLKEIrsSuIDKho-6" value="IAM" style="swimlane;html=1;startSize=20;" vertex="1" parent="77e6c97f196da883-1">
          <mxGeometry x="960" y="20" width="160" height="3400" as="geometry" />
        </mxCell>
        <mxCell id="hE7h3HSLKEIrsSuIDKho-25" value="&lt;span&gt;查询域账号信息&lt;/span&gt;" style="rounded=1;whiteSpace=wrap;html=1;shadow=0;labelBackgroundColor=none;strokeWidth=1;fontFamily=Verdana;fontSize=8;align=center;" vertex="1" parent="hE7h3HSLKEIrsSuIDKho-6">
          <mxGeometry x="30" y="290" width="100" height="60" as="geometry" />
        </mxCell>
        <mxCell id="hE7h3HSLKEIrsSuIDKho-33" value="域账号修改/重置" style="rounded=1;whiteSpace=wrap;html=1;shadow=0;labelBackgroundColor=none;strokeWidth=1;fontFamily=Verdana;fontSize=8;align=center;" vertex="1" parent="hE7h3HSLKEIrsSuIDKho-6">
          <mxGeometry x="30" y="520" width="100" height="60" as="geometry" />
        </mxCell>
        <mxCell id="hE7h3HSLKEIrsSuIDKho-8" value="BPM" style="swimlane;html=1;startSize=20;" vertex="1" parent="77e6c97f196da883-1">
          <mxGeometry x="1120" y="20" width="160" height="3400" as="geometry" />
        </mxCell>
        <mxCell id="hE7h3HSLKEIrsSuIDKho-139" value="飞塔VPN申请" style="rounded=1;whiteSpace=wrap;html=1;shadow=0;labelBackgroundColor=none;strokeWidth=1;fontFamily=Verdana;fontSize=8;align=center;" vertex="1" parent="hE7h3HSLKEIrsSuIDKho-8">
          <mxGeometry x="30" y="1460" width="100" height="60" as="geometry" />
        </mxCell>
        <mxCell id="hE7h3HSLKEIrsSuIDKho-142" value="飞塔VPN申请流程状态" style="rounded=1;whiteSpace=wrap;html=1;shadow=0;labelBackgroundColor=none;strokeWidth=1;fontFamily=Verdana;fontSize=8;align=center;" vertex="1" parent="hE7h3HSLKEIrsSuIDKho-8">
          <mxGeometry x="30" y="1660" width="100" height="60" as="geometry" />
        </mxCell>
        <mxCell id="hE7h3HSLKEIrsSuIDKho-189" value="WebEx账号申请" style="rounded=1;whiteSpace=wrap;html=1;shadow=0;labelBackgroundColor=none;strokeWidth=1;fontFamily=Verdana;fontSize=8;align=center;" vertex="1" parent="hE7h3HSLKEIrsSuIDKho-8">
          <mxGeometry x="30" y="2830" width="100" height="60" as="geometry" />
        </mxCell>
        <mxCell id="hE7h3HSLKEIrsSuIDKho-195" value="WebEx账号申请流程状态" style="rounded=1;whiteSpace=wrap;html=1;shadow=0;labelBackgroundColor=none;strokeWidth=1;fontFamily=Verdana;fontSize=8;align=center;" vertex="1" parent="hE7h3HSLKEIrsSuIDKho-8">
          <mxGeometry x="20" y="3040" width="100" height="60" as="geometry" />
        </mxCell>
        <mxCell id="hE7h3HSLKEIrsSuIDKho-128" value="人力系统&amp;nbsp;" style="swimlane;html=1;startSize=20;" vertex="1" parent="77e6c97f196da883-1">
          <mxGeometry x="1280" y="20" width="160" height="3400" as="geometry" />
        </mxCell>
        <mxCell id="hE7h3HSLKEIrsSuIDKho-11" value="&lt;span&gt;查询基本信息&lt;/span&gt;" style="rounded=1;whiteSpace=wrap;html=1;shadow=0;labelBackgroundColor=none;strokeWidth=1;fontFamily=Verdana;fontSize=8;align=center;" vertex="1" parent="hE7h3HSLKEIrsSuIDKho-128">
          <mxGeometry x="40" y="67.5" width="100" height="55" as="geometry" />
        </mxCell>
        <mxCell id="hE7h3HSLKEIrsSuIDKho-132" style="edgeStyle=orthogonalEdgeStyle;rounded=0;orthogonalLoop=1;jettySize=auto;html=1;entryX=0;entryY=0.5;entryDx=0;entryDy=0;" edge="1" parent="77e6c97f196da883-1" source="77e6c97f196da883-11" target="hE7h3HSLKEIrsSuIDKho-11">
          <mxGeometry relative="1" as="geometry">
            <mxPoint x="1280" y="115" as="targetPoint" />
          </mxGeometry>
        </mxCell>
        <mxCell id="hE7h3HSLKEIrsSuIDKho-134" style="edgeStyle=orthogonalEdgeStyle;rounded=0;orthogonalLoop=1;jettySize=auto;html=1;" edge="1" parent="77e6c97f196da883-1" source="hE7h3HSLKEIrsSuIDKho-21" target="hE7h3HSLKEIrsSuIDKho-115">
          <mxGeometry relative="1" as="geometry" />
        </mxCell>
        <mxCell id="hE7h3HSLKEIrsSuIDKho-135" style="edgeStyle=orthogonalEdgeStyle;rounded=0;orthogonalLoop=1;jettySize=auto;html=1;" edge="1" parent="77e6c97f196da883-1" source="hE7h3HSLKEIrsSuIDKho-115" target="hE7h3HSLKEIrsSuIDKho-116">
          <mxGeometry relative="1" as="geometry" />
        </mxCell>
        <mxCell id="hE7h3HSLKEIrsSuIDKho-136" style="edgeStyle=orthogonalEdgeStyle;rounded=0;orthogonalLoop=1;jettySize=auto;html=1;entryX=1;entryY=0.5;entryDx=0;entryDy=0;" edge="1" parent="77e6c97f196da883-1" source="hE7h3HSLKEIrsSuIDKho-116" target="hE7h3HSLKEIrsSuIDKho-117">
          <mxGeometry relative="1" as="geometry">
            <Array as="points">
              <mxPoint x="560" y="1380" />
            </Array>
          </mxGeometry>
        </mxCell>
        <mxCell id="hE7h3HSLKEIrsSuIDKho-137" style="edgeStyle=orthogonalEdgeStyle;rounded=0;orthogonalLoop=1;jettySize=auto;html=1;entryX=0.5;entryY=1;entryDx=0;entryDy=0;" edge="1" parent="77e6c97f196da883-1" source="hE7h3HSLKEIrsSuIDKho-117" target="hE7h3HSLKEIrsSuIDKho-21">
          <mxGeometry relative="1" as="geometry" />
        </mxCell>
        <mxCell id="hE7h3HSLKEIrsSuIDKho-140" style="edgeStyle=orthogonalEdgeStyle;rounded=0;orthogonalLoop=1;jettySize=auto;html=1;entryX=0;entryY=0.5;entryDx=0;entryDy=0;" edge="1" parent="77e6c97f196da883-1" source="hE7h3HSLKEIrsSuIDKho-138" target="hE7h3HSLKEIrsSuIDKho-139">
          <mxGeometry relative="1" as="geometry">
            <mxPoint x="1140" y="1500" as="targetPoint" />
          </mxGeometry>
        </mxCell>
        <mxCell id="hE7h3HSLKEIrsSuIDKho-150" style="edgeStyle=orthogonalEdgeStyle;rounded=0;orthogonalLoop=1;jettySize=auto;html=1;entryX=1;entryY=0.5;entryDx=0;entryDy=0;" edge="1" parent="77e6c97f196da883-1" source="hE7h3HSLKEIrsSuIDKho-139" target="hE7h3HSLKEIrsSuIDKho-149">
          <mxGeometry relative="1" as="geometry">
            <Array as="points">
              <mxPoint x="1200" y="1590" />
            </Array>
          </mxGeometry>
        </mxCell>
        <mxCell id="hE7h3HSLKEIrsSuIDKho-152" style="edgeStyle=orthogonalEdgeStyle;rounded=0;orthogonalLoop=1;jettySize=auto;html=1;entryX=0;entryY=0.5;entryDx=0;entryDy=0;" edge="1" parent="77e6c97f196da883-1" source="hE7h3HSLKEIrsSuIDKho-20" target="hE7h3HSLKEIrsSuIDKho-151">
          <mxGeometry relative="1" as="geometry" />
        </mxCell>
        <mxCell id="hE7h3HSLKEIrsSuIDKho-155" style="edgeStyle=orthogonalEdgeStyle;rounded=0;orthogonalLoop=1;jettySize=auto;html=1;entryX=0.5;entryY=1;entryDx=0;entryDy=0;" edge="1" parent="77e6c97f196da883-1" source="hE7h3HSLKEIrsSuIDKho-153" target="hE7h3HSLKEIrsSuIDKho-20">
          <mxGeometry relative="1" as="geometry" />
        </mxCell>
        <mxCell id="hE7h3HSLKEIrsSuIDKho-158" style="edgeStyle=orthogonalEdgeStyle;rounded=0;orthogonalLoop=1;jettySize=auto;html=1;entryX=0;entryY=0.5;entryDx=0;entryDy=0;" edge="1" parent="77e6c97f196da883-1" source="hE7h3HSLKEIrsSuIDKho-156" target="hE7h3HSLKEIrsSuIDKho-157">
          <mxGeometry relative="1" as="geometry" />
        </mxCell>
        <mxCell id="hE7h3HSLKEIrsSuIDKho-161" style="edgeStyle=orthogonalEdgeStyle;rounded=0;orthogonalLoop=1;jettySize=auto;html=1;entryX=0.5;entryY=1;entryDx=0;entryDy=0;" edge="1" parent="77e6c97f196da883-1" source="hE7h3HSLKEIrsSuIDKho-159" target="hE7h3HSLKEIrsSuIDKho-156">
          <mxGeometry relative="1" as="geometry" />
        </mxCell>
        <mxCell id="hE7h3HSLKEIrsSuIDKho-163" style="edgeStyle=orthogonalEdgeStyle;rounded=0;orthogonalLoop=1;jettySize=auto;html=1;entryX=0;entryY=0.5;entryDx=0;entryDy=0;" edge="1" parent="77e6c97f196da883-1" source="hE7h3HSLKEIrsSuIDKho-151" target="hE7h3HSLKEIrsSuIDKho-162">
          <mxGeometry relative="1" as="geometry" />
        </mxCell>
        <mxCell id="hE7h3HSLKEIrsSuIDKho-164" style="edgeStyle=orthogonalEdgeStyle;rounded=0;orthogonalLoop=1;jettySize=auto;html=1;entryX=1;entryY=0.5;entryDx=0;entryDy=0;" edge="1" parent="77e6c97f196da883-1" source="hE7h3HSLKEIrsSuIDKho-162" target="hE7h3HSLKEIrsSuIDKho-153">
          <mxGeometry relative="1" as="geometry">
            <Array as="points">
              <mxPoint x="720" y="2060" />
            </Array>
          </mxGeometry>
        </mxCell>
        <mxCell id="hE7h3HSLKEIrsSuIDKho-180" style="edgeStyle=orthogonalEdgeStyle;rounded=0;orthogonalLoop=1;jettySize=auto;html=1;" edge="1" parent="77e6c97f196da883-1" source="hE7h3HSLKEIrsSuIDKho-23" target="hE7h3HSLKEIrsSuIDKho-178">
          <mxGeometry relative="1" as="geometry" />
        </mxCell>
        <mxCell id="hE7h3HSLKEIrsSuIDKho-181" style="edgeStyle=orthogonalEdgeStyle;rounded=0;orthogonalLoop=1;jettySize=auto;html=1;entryX=0;entryY=0.5;entryDx=0;entryDy=0;" edge="1" parent="77e6c97f196da883-1" source="hE7h3HSLKEIrsSuIDKho-178" target="hE7h3HSLKEIrsSuIDKho-179">
          <mxGeometry relative="1" as="geometry" />
        </mxCell>
        <mxCell id="hE7h3HSLKEIrsSuIDKho-185" style="edgeStyle=orthogonalEdgeStyle;rounded=0;orthogonalLoop=1;jettySize=auto;html=1;entryX=1;entryY=0.5;entryDx=0;entryDy=0;" edge="1" parent="77e6c97f196da883-1" source="hE7h3HSLKEIrsSuIDKho-179" target="hE7h3HSLKEIrsSuIDKho-184">
          <mxGeometry relative="1" as="geometry">
            <Array as="points">
              <mxPoint x="890" y="2540" />
            </Array>
          </mxGeometry>
        </mxCell>
        <mxCell id="hE7h3HSLKEIrsSuIDKho-186" style="edgeStyle=orthogonalEdgeStyle;rounded=0;orthogonalLoop=1;jettySize=auto;html=1;" edge="1" parent="77e6c97f196da883-1" source="hE7h3HSLKEIrsSuIDKho-184" target="hE7h3HSLKEIrsSuIDKho-23">
          <mxGeometry relative="1" as="geometry" />
        </mxCell>
        <mxCell id="hE7h3HSLKEIrsSuIDKho-207" style="edgeStyle=orthogonalEdgeStyle;rounded=0;orthogonalLoop=1;jettySize=auto;html=1;entryX=0;entryY=0.5;entryDx=0;entryDy=0;" edge="1" parent="77e6c97f196da883-1" source="hE7h3HSLKEIrsSuIDKho-205" target="hE7h3HSLKEIrsSuIDKho-206">
          <mxGeometry relative="1" as="geometry" />
        </mxCell>
        <mxCell id="hE7h3HSLKEIrsSuIDKho-210" style="edgeStyle=orthogonalEdgeStyle;rounded=0;orthogonalLoop=1;jettySize=auto;html=1;entryX=1;entryY=0.5;entryDx=0;entryDy=0;" edge="1" parent="77e6c97f196da883-1" source="hE7h3HSLKEIrsSuIDKho-206" target="hE7h3HSLKEIrsSuIDKho-208">
          <mxGeometry relative="1" as="geometry">
            <Array as="points">
              <mxPoint x="880" y="2780" />
            </Array>
          </mxGeometry>
        </mxCell>
      </root>
    </mxGraphModel>
  </diagram>
</mxfile>
